<svg width="140" height="140" viewBox="0 0 120 120" fill="none" xmlns="http://www.w3.org/2000/svg" class="drop-shadow-lg"><defs><radialGradient id="glow" cx="50%" cy="50%" r="50%"><stop offset="0%" stop-color="#00D4FF" stop-opacity="0.3"></stop><stop offset="100%" stop-color="#00D4FF" stop-opacity="0"></stop></radialGradient><linearGradient id="shieldGradient" x1="0%" y1="0%" x2="100%" y2="100%"><stop offset="0%" stop-color="#1A1B2E"></stop><stop offset="50%" stop-color="#16213E"></stop><stop offset="100%" stop-color="#0F1419"></stop></linearGradient><linearGradient id="blueGradient" x1="0%" y1="0%" x2="100%" y2="100%"><stop offset="0%" stop-color="#00D4FF"></stop><stop offset="100%" stop-color="#0099CC"></stop></linearGradient></defs><circle cx="60" cy="60" r="55" fill="url(#glow)"></circle><g opacity="0.6"><path d="M15 45 L45 45" stroke="#00D4FF" stroke-width="2" stroke-linecap="round"></path><path d="M20 55 L40 55" stroke="#00D4FF" stroke-width="1.5" stroke-linecap="round"></path><path d="M25 65 L35 65" stroke="#00D4FF" stroke-width="1" stroke-linecap="round"></path><path d="M85 35 L105 35" stroke="#00D4FF" stroke-width="2" stroke-linecap="round"></path><path d="M80 75 L100 75" stroke="#00D4FF" stroke-width="1.5" stroke-linecap="round"></path><path d="M75 85 L95 85" stroke="#00D4FF" stroke-width="1" stroke-linecap="round"></path></g><path d="M60 10 L85 25 L85 65 C85 75 75 85 60 95 C45 85 35 75 35 65 L35 25 Z" fill="url(#shieldGradient)" stroke="#00D4FF" stroke-width="2"></path><g><path d="M50 30 L60 50 L70 30" stroke="url(#blueGradient)" stroke-width="3" stroke-linecap="round" stroke-linejoin="round" fill="none"></path><path d="M45 40 L60 55 L75 40" stroke="#00D4FF" stroke-width="2" stroke-linecap="round" stroke-linejoin="round" fill="none" opacity="0.8"></path><rect x="52" y="65" width="3" height="12" fill="#00D4FF" rx="1.5"></rect><rect x="57" y="60" width="3" height="17" fill="#00D4FF" rx="1.5"></rect><rect x="62" y="63" width="3" height="14" fill="#00D4FF" rx="1.5"></rect><rect x="67" y="58" width="3" height="19" fill="#00D4FF" rx="1.5"></rect></g><g opacity="0.9"><circle cx="42" cy="35" r="2" fill="#00D4FF"></circle><circle cx="78" cy="45" r="1.5" fill="#00D4FF"></circle><polygon points="85,55 90,50 85,50" fill="#00D4FF" opacity="0.7"></polygon><polygon points="35,50 30,55 35,55" fill="#00D4FF" opacity="0.7"></polygon></g></svg>